Coordinates
version=1
nRows=28
nColumns=38
inDegrees=no

Units are S.I. units (second, meters, Newtons, ...)
If the header above contains a line with 'inDegrees', this indicates whether rotational values are in degrees (yes) or radians (no).

endheader
time	pelvis_tilt	pelvis_list	pelvis_rotation	pelvis_tx	pelvis_ty	pelvis_tz	hip_flexion_r	hip_adduction_r	hip_rotation_r	knee_angle_r	ankle_angle_r	subtalar_angle_r	mtp_angle_r	hip_flexion_l	hip_adduction_l	hip_rotation_l	knee_angle_l	ankle_angle_l	subtalar_angle_l	mtp_angle_l	lumbar_extension	lumbar_bending	lumbar_rotation	arm_flex_r	arm_add_r	arm_rot_r	elbow_flex_r	pro_sup_r	wrist_flex_r	wrist_dev_r	arm_flex_l	arm_add_l	arm_rot_l	elbow_flex_l	pro_sup_l	wrist_flex_l	wrist_dev_l
2.42501	0.386502	-0.0722075	-2.90347	-0.123166	0.441243	0.0684328	2.08921	-0.602136	0.407508	2.09422	0.517001	0	0	1.93755	-0.0155005	-0.142044	2.09392	0.514998	0	0	-0.284312	0.0498196	-0.21297	1.52669	-0.481607	0.903779	1.90184	1.507	0	0	1.55858	-0.246633	0.951254	1.7699	1.56817	0	0
2.43499	0.386623	-0.0723879	-2.90422	-0.123007	0.441859	0.0683222	2.08897	-0.602463	0.405905	2.09421	0.516971	0	0	1.93658	-0.0151654	-0.141583	2.09388	0.515273	0	0	-0.28425	0.0492909	-0.212032	1.52643	-0.481623	0.904928	1.90183	1.50848	0	0	1.55834	-0.24673	0.951602	1.77016	1.56826	0	0
2.44497	0.386812	-0.0725196	-2.90513	-0.122854	0.442577	0.0681998	2.08872	-0.602858	0.403925	2.09419	0.516931	0	0	1.93554	-0.0150041	-0.141039	2.09385	0.51557	0	0	-0.284104	0.0487375	-0.210993	1.52617	-0.481665	0.906168	1.90171	1.51002	0	0	1.5581	-0.246953	0.952057	1.77043	1.56837	0	0
2.45495	0.387076	-0.0726057	-2.90618	-0.122708	0.443402	0.0680673	2.08846	-0.603333	0.401583	2.09417	0.516883	0	0	1.93443	-0.0150111	-0.140422	2.09381	0.515888	0	0	-0.283854	0.0481531	-0.20988	1.52591	-0.481742	0.907487	1.90148	1.51158	0	0	1.55786	-0.247314	0.952627	1.77068	1.56847	0	0
2.46493	0.38742	-0.0726511	-2.90734	-0.122573	0.444335	0.067927	2.0882	-0.603901	0.39891	2.09415	0.516827	0	0	1.93324	-0.0151711	-0.13974	2.09377	0.516223	0	0	-0.283475	0.0475312	-0.20872	1.52564	-0.481867	0.908875	1.90114	1.51314	0	0	1.55761	-0.24782	0.953317	1.77091	1.56858	0	0
2.47491	0.387851	-0.072662	-2.90859	-0.122453	0.445378	0.0677814	2.08793	-0.604572	0.395949	2.09412	0.516767	0	0	1.93199	-0.0154609	-0.139006	2.09373	0.51657	0	0	-0.282939	0.0468651	-0.207538	1.52537	-0.482057	0.910326	1.90069	1.51463	0	0	1.55735	-0.248468	0.954132	1.7711	1.56868	0	0
2.48489	0.388376	-0.0726467	-2.90988	-0.122353	0.446529	0.0676334	2.08766	-0.60535	0.392748	2.09409	0.516703	0	0	1.93067	-0.0158561	-0.13823	2.0937	0.516924	0	0	-0.282221	0.0461469	-0.206356	1.52507	-0.482329	0.911836	1.90013	1.51601	0	0	1.55709	-0.249249	0.955073	1.77124	1.56878	0	0
2.49487	0.389004	-0.0726158	-2.9112	-0.122276	0.447786	0.0674859	2.08738	-0.606239	0.389355	2.09406	0.51664	0	0	1.92929	-0.016333	-0.137434	2.09367	0.517278	0	0	-0.281292	0.0453676	-0.205187	1.52476	-0.4827	0.913403	1.89947	1.51726	0	0	1.55683	-0.250146	0.956138	1.77132	1.56887	0	0
2.50485	0.389741	-0.0725817	-2.91252	-0.122228	0.449146	0.0673422	2.0871	-0.607233	0.385812	2.09402	0.516581	0	0	1.92785	-0.016867	-0.136641	2.09365	0.517622	0	0	-0.280125	0.0445179	-0.204039	1.52441	-0.483185	0.915021	1.89873	1.51834	0	0	1.55656	-0.251139	0.957319	1.77133	1.56894	0	0
2.51483	0.390596	-0.0725577	-2.91382	-0.122212	0.450603	0.0672056	2.08681	-0.608322	0.382144	2.09398	0.516529	0	0	1.92636	-0.0174316	-0.135885	2.09364	0.517951	0	0	-0.278694	0.0435883	-0.202909	1.52401	-0.483796	0.916683	1.89794	1.51924	0	0	1.55629	-0.252207	0.9586	1.77128	1.569	0	0
2.5248	0.391585	-0.0725478	-2.9151	-0.122231	0.452152	0.0670779	2.08653	-0.609483	0.378381	2.09394	0.516488	0	0	1.92483	-0.018017	-0.135179	2.09364	0.518254	0	0	-0.276965	0.042574	-0.201788	1.52355	-0.484543	0.918376	1.89712	1.51999	0	0	1.55601	-0.253329	0.959976	1.77116	1.56905	0	0
2.53478	0.392718	-0.0725607	-2.91636	-0.122291	0.453786	0.0669603	2.08624	-0.610688	0.374512	2.09389	0.516462	0	0	1.92326	-0.0186135	-0.134554	2.09367	0.518526	0	0	-0.274915	0.0414666	-0.200656	1.52302	-0.485428	0.920085	1.89631	1.52062	0	0	1.55573	-0.254488	0.961425	1.77098	1.5691	0	0
2.54476	0.393997	-0.0726186	-2.91762	-0.122392	0.455501	0.0668546	2.08595	-0.611906	0.37049	2.09384	0.516444	0	0	1.92164	-0.0192055	-0.134074	2.09371	0.518775	0	0	-0.272542	0.0402477	-0.199486	1.52239	-0.486432	0.921798	1.89551	1.5212	0	0	1.55544	-0.255662	0.962901	1.77074	1.56913	0	0
2.55474	0.395412	-0.0727338	-2.91891	-0.122537	0.457287	0.0667587	2.08567	-0.613116	0.366324	2.09379	0.516435	0	0	1.91996	-0.0198182	-0.133752	2.09378	0.519002	0	0	-0.269849	0.0388987	-0.198264	1.52167	-0.487539	0.923482	1.89475	1.52177	0	0	1.55515	-0.256847	0.96438	1.77045	1.56916	0	0
2.56472	0.39696	-0.0729107	-2.92022	-0.122729	0.459137	0.066669	2.0854	-0.614301	0.362046	2.09374	0.516433	0	0	1.91822	-0.0204885	-0.133579	2.09388	0.519203	0	0	-0.266838	0.0374064	-0.196993	1.52084	-0.488728	0.925097	1.89405	1.52242	0	0	1.55486	-0.258042	0.965856	1.77013	1.56918	0	0
2.5747	0.398632	-0.0731493	-2.92157	-0.122968	0.46104	0.0665815	2.08513	-0.61545	0.357698	2.09368	0.516441	0	0	1.91644	-0.0212482	-0.133537	2.09399	0.519373	0	0	-0.263517	0.0357628	-0.195689	1.5199	-0.489975	0.926605	1.89342	1.5232	0	0	1.55456	-0.259256	0.967328	1.7698	1.5692	0	0
2.58468	0.400416	-0.0734476	-2.92293	-0.123256	0.462988	0.0664918	2.08487	-0.616565	0.353341	2.09363	0.516461	0	0	1.91462	-0.0221199	-0.133605	2.09413	0.519511	0	0	-0.2599	0.0339619	-0.194388	1.51887	-0.49125	0.927966	1.89289	1.52415	0	0	1.55426	-0.260503	0.968806	1.76947	1.56921	0	0
2.59466	0.402289	-0.0738086	-2.92429	-0.123594	0.464974	0.0663959	2.08461	-0.61766	0.349061	2.09358	0.516496	0	0	1.91276	-0.0231081	-0.133764	2.09427	0.51962	0	0	-0.256015	0.0319943	-0.193148	1.51775	-0.492526	0.929147	1.89245	1.52521	0	0	1.55395	-0.261797	0.970313	1.76915	1.56922	0	0
2.60464	0.404225	-0.0742267	-2.92559	-0.123982	0.466987	0.066288	2.08436	-0.618753	0.344931	2.09354	0.51655	0	0	1.91084	-0.0242155	-0.133983	2.0944	0.519702	0	0	-0.251892	0.0298558	-0.192033	1.51654	-0.493774	0.930126	1.89211	1.52632	0	0	1.55365	-0.263155	0.971877	1.76884	1.56923	0	0
2.61462	0.406196	-0.0746931	-2.92684	-0.124418	0.469024	0.0661623	2.08411	-0.619859	0.340975	2.09352	0.51662	0	0	1.90886	-0.0254354	-0.134242	2.09448	0.519763	0	0	-0.247573	0.027546	-0.191089	1.51528	-0.494965	0.930905	1.89187	1.52749	0	0	1.55333	-0.264592	0.973511	1.76856	1.56924	0	0
2.6246	0.408174	-0.0751952	-2.92802	-0.124898	0.471077	0.0660132	2.08385	-0.620987	0.337166	2.0935	0.516704	0	0	1.90678	-0.0267508	-0.134535	2.09449	0.519807	0	0	-0.243104	0.0250696	-0.190342	1.51398	-0.496064	0.931501	1.89169	1.52872	0	0	1.55302	-0.266113	0.975212	1.76829	1.56925	0	0
2.63458	0.410132	-0.0757162	-2.92915	-0.125416	0.473145	0.0658361	2.08357	-0.622135	0.333426	2.09351	0.516794	0	0	1.90457	-0.0281328	-0.134868	2.09437	0.519838	0	0	-0.238537	0.0224363	-0.189799	1.51269	-0.497041	0.931948	1.89155	1.53002	0	0	1.5527	-0.26772	0.976962	1.76804	1.56925	0	0
2.64456	0.412037	-0.0762288	-2.93022	-0.125966	0.475226	0.065625	2.08325	-0.623319	0.329734	2.09355	0.516887	0	0	1.90221	-0.029575	-0.1352	2.09405	0.519861	0	0	-0.233939	0.0196613	-0.189482	1.51145	-0.497874	0.932278	1.89143	1.53136	0	0	1.55238	-0.269416	0.978756	1.7678	1.56926	0	0
2.65454	0.41386	-0.0767061	-2.93123	-0.126542	0.47732	0.0653764	2.08287	-0.624545	0.326033	2.09361	0.51698	0	0	1.89966	-0.031051	-0.135512	2.09348	0.519877	0	0	-0.229372	0.0167661	-0.18939	1.5103	-0.498551	0.932538	1.89129	1.53275	0	0	1.55206	-0.271189	0.980563	1.76756	1.56926	0	0
2.66452	0.415571	-0.0771226	-2.93218	-0.127137	0.479428	0.0650892	2.0824	-0.625832	0.322292	2.0937	0.51707	0	0	1.89687	-0.032521	-0.135777	2.09257	0.519891	0	0	-0.224909	0.0137813	-0.189532	1.50927	-0.499077	0.932778	1.89113	1.53412	0	0	1.55173	-0.273024	0.982357	1.76731	1.56927	0	0
2.6745	0.417144	-0.0774555	-2.93305	-0.127745	0.481555	0.0647637	2.0818	-0.627202	0.318532	2.09382	0.517161	0	0	1.89383	-0.0339488	-0.135956	2.09123	0.519903	0	0	-0.220612	0.0107359	-0.189925	1.5084	-0.499473	0.933033	1.89093	1.53545	0	0	1.5514	-0.274897	0.98413	1.76704	1.56927	0	0
2.68448	0.418567	-0.0776905	-2.93381	-0.128358	0.483703	0.064403	2.08103	-0.628663	0.314771	2.09396	0.517253	0	0	1.89051	-0.0352894	-0.136023	2.08939	0.519916	0	0	-0.21653	0.00766	-0.190581	1.50769	-0.499769	0.933333	1.89071	1.53675	0	0	1.55107	-0.276779	0.985885	1.76673	1.56927	0	0
2.69446	0.419833	-0.0778229	-2.93445	-0.128971	0.485879	0.0640146	2.08005	-0.630213	0.310998	2.0941	0.517346	0	0	1.88687	-0.0364854	-0.135976	2.087	0.519929	0	0	-0.212698	0.00459107	-0.191488	1.50714	-0.499999	0.93371	1.89046	1.53801	0	0	1.55074	-0.278639	0.987628	1.76638	1.56927	0	0
